<svg id="svg" xmlns="http://www.w3.org/2000/svg" xmlns:xlink="http://www.w3.org/1999/xlink" width="400" height="400" viewBox="0, 0, 400,400" version="1.1"><g id="svgg"><path id="path0" d="M189.063 44.967 C 187.021 45.147,185.088 45.380,184.766 45.484 C 184.443 45.588,185.498 45.567,187.109 45.439 C 188.721 45.310,193.730 45.083,198.242 44.934 L 206.445 44.664 199.609 44.651 C 195.850 44.644,191.104 44.786,189.063 44.967 M207.706 45.204 C 208.400 45.290,209.630 45.292,210.441 45.207 C 211.251 45.122,210.684 45.052,209.180 45.050 C 207.676 45.048,207.013 45.118,207.706 45.204 M212.994 45.593 C 213.587 45.683,214.466 45.680,214.947 45.587 C 215.427 45.495,214.941 45.421,213.867 45.424 C 212.793 45.427,212.400 45.503,212.994 45.593 M178.906 46.157 C 118.568 56.286,71.398 96.811,53.715 153.711 C 51.300 161.481,47.950 176.595,48.516 177.162 C 48.613 177.259,49.002 175.538,49.379 173.337 C 60.849 106.457,114.808 55.029,183.008 45.976 C 183.908 45.856,183.818 45.817,182.617 45.808 C 181.758 45.801,180.088 45.958,178.906 46.157 M216.704 45.979 C 217.190 46.073,217.893 46.069,218.266 45.972 C 218.640 45.874,218.242 45.797,217.383 45.802 C 216.523 45.806,216.218 45.886,216.704 45.979 M225.977 47.459 C 229.629 48.177,233.232 48.892,233.984 49.048 C 234.736 49.204,235.252 49.221,235.131 49.087 C 234.841 48.766,221.334 46.085,220.206 46.124 C 219.727 46.140,222.324 46.741,225.977 47.459 M236.133 49.609 C 236.563 49.794,237.266 49.945,237.695 49.945 L 238.477 49.945 237.695 49.609 C 237.266 49.425,236.563 49.274,236.133 49.274 L 235.352 49.274 236.133 49.609 M240.039 50.560 C 240.898 50.863,243.799 51.809,246.484 52.661 C 277.227 62.422,303.371 81.083,322.657 107.031 C 324.653 109.717,326.462 112.090,326.677 112.305 C 327.391 113.018,326.503 111.610,324.462 108.789 C 304.870 81.712,278.450 62.577,246.248 52.142 C 241.186 50.502,236.455 49.296,240.039 50.560 M187.874 52.736 C 178.494 53.580,156.581 58.274,157.541 59.233 C 157.641 59.334,159.105 58.971,160.795 58.428 C 219.346 39.608,291.393 67.819,324.126 122.382 C 334.969 140.456,340.930 158.142,344.693 183.398 C 344.789 184.043,344.783 183.196,344.681 181.517 C 343.707 165.577,335.051 140.019,324.793 122.794 C 297.236 76.519,241.347 47.922,187.874 52.736 M154.883 59.841 C 94.776 80.560,55.764 133.900,54.515 197.070 L 54.353 205.273 54.698 197.269 C 57.530 131.680,93.277 82.872,155.078 60.213 C 157.241 59.420,157.067 59.088,154.883 59.841 M182.617 74.583 C 158.575 78.834,131.975 96.958,122.096 115.820 C 120.432 118.997,120.676 118.695,123.735 113.789 C 137.713 91.373,165.789 75.198,192.383 74.239 L 199.805 73.971 193.164 73.931 C 188.395 73.903,185.422 74.087,182.617 74.583 M206.250 75.606 C 207.217 75.911,208.184 76.149,208.398 76.136 C 209.082 76.095,206.088 75.060,205.273 75.056 C 204.844 75.054,205.283 75.302,206.250 75.606 M211.678 77.380 C 212.622 77.799,213.465 78.072,213.550 77.987 C 213.719 77.818,210.708 76.545,210.246 76.590 C 210.089 76.605,210.734 76.961,211.678 77.380 M217.410 80.106 C 224.159 83.869,231.615 90.329,236.914 97.006 C 238.203 98.630,239.511 99.968,239.821 99.979 C 240.281 99.996,240.271 99.911,239.769 99.512 C 239.430 99.243,237.563 97.154,235.620 94.870 C 229.571 87.760,217.262 78.106,214.274 78.128 C 214.050 78.130,215.461 79.020,217.410 80.106 M185.742 81.866 C 157.545 86.195,130.109 107.850,124.010 130.589 C 121.756 138.992,121.293 151.270,122.852 161.273 C 123.601 166.075,123.984 165.505,119.715 165.942 C 117.490 166.170,116.853 166.319,117.969 166.350 C 118.936 166.377,120.669 166.286,121.821 166.148 L 123.915 165.897 123.677 164.296 C 120.872 145.417,122.459 131.196,128.580 120.369 C 137.527 104.543,155.751 90.540,174.805 84.852 C 185.308 81.716,192.793 80.949,200.570 82.212 C 203.816 82.739,205.751 82.782,203.251 82.271 C 197.630 81.124,191.497 80.982,185.742 81.866 M208.583 84.360 C 214.841 86.795,220.345 90.318,225.339 95.086 C 228.237 97.853,231.509 101.953,230.820 101.953 C 229.950 101.953,218.619 106.674,214.324 108.826 C 205.453 113.271,198.713 117.686,185.547 127.677 C 177.663 133.660,168.750 139.571,164.261 141.796 C 162.415 142.710,160.992 143.544,161.097 143.649 C 161.864 144.416,176.609 135.030,186.100 127.733 C 202.629 115.024,214.504 108.171,229.102 102.918 C 231.899 101.911,231.899 101.913,229.619 99.173 C 223.225 91.486,212.969 84.570,205.658 83.016 C 205.017 82.880,206.333 83.485,208.583 84.360 M242.188 99.151 C 241.436 99.296,244.512 99.414,249.023 99.414 C 253.535 99.414,258.281 99.537,259.570 99.687 C 261.512 99.913,261.680 99.891,260.547 99.557 C 258.957 99.089,244.206 98.762,242.188 99.151 M265.234 100.988 C 276.769 104.225,285.316 112.210,287.133 121.445 C 289.092 131.401,282.534 141.619,269.030 149.653 C 267.264 150.703,266.012 151.562,266.246 151.562 C 266.875 151.563,272.842 147.909,275.263 146.041 C 291.890 133.214,291.909 115.557,275.307 104.937 C 271.773 102.677,264.577 99.924,262.475 100.028 C 262.167 100.043,263.408 100.475,265.234 100.988 M246.094 106.491 C 230.306 108.475,214.655 115.308,197.936 127.514 C 181.116 139.795,173.755 143.351,163.477 144.167 L 159.570 144.476 163.672 144.337 C 173.396 144.007,180.650 140.519,198.528 127.575 C 222.960 109.887,247.399 102.865,264.522 108.614 C 284.281 115.248,285.033 131.840,266.078 142.920 C 261.776 145.434,261.794 145.410,262.995 146.990 C 263.519 147.678,264.317 148.945,264.769 149.805 C 265.221 150.664,265.598 151.089,265.608 150.748 C 265.617 150.408,264.922 149.126,264.063 147.899 C 262.150 145.168,262.020 145.648,265.137 143.936 C 284.643 133.220,285.427 116.738,266.797 109.042 C 261.830 106.990,251.878 105.764,246.094 106.491 M327.548 113.867 C 342.320 137.470,350.636 161.850,352.730 187.695 L 353.078 191.992 352.908 187.500 C 352.450 175.378,348.883 159.307,343.284 144.141 C 340.009 135.270,329.876 115.522,327.449 113.281 C 326.963 112.833,326.987 112.970,327.548 113.867 M119.393 121.037 C 118.824 122.304,118.367 123.494,118.377 123.682 C 118.387 123.870,118.916 122.897,119.553 121.521 C 120.190 120.144,120.647 118.954,120.569 118.876 C 120.490 118.798,119.961 119.770,119.393 121.037 M117.167 127.013 C 114.209 136.914,113.605 157.379,116.054 164.772 C 116.362 165.704,116.381 165.669,116.219 164.453 C 116.118 163.701,115.818 161.416,115.552 159.375 C 114.239 149.311,115.009 135.821,117.357 127.745 C 117.886 125.926,118.252 124.372,118.171 124.291 C 118.090 124.210,117.638 125.435,117.167 127.013 M228.125 135.936 C 232.750 136.117,236.943 136.496,238.800 136.902 C 240.481 137.269,241.935 137.492,242.030 137.397 C 242.692 136.735,235.047 135.821,228.125 135.734 L 220.508 135.637 228.125 135.936 M215.430 136.349 C 214.442 136.539,215.018 136.573,216.992 136.442 C 218.711 136.327,220.190 136.167,220.280 136.085 C 220.550 135.840,217.101 136.027,215.430 136.349 M208.984 137.500 C 207.671 137.920,209.090 137.920,210.742 137.500 C 211.795 137.232,211.815 137.201,210.938 137.195 C 210.400 137.191,209.521 137.328,208.984 137.500 M246.023 138.827 C 253.011 141.429,255.534 144.669,256.245 151.953 C 256.521 154.776,256.533 154.804,256.586 152.719 C 256.778 145.131,251.675 139.249,243.555 137.696 C 242.910 137.572,244.021 138.081,246.023 138.827 M203.595 138.749 C 202.027 139.187,200.818 139.620,200.908 139.710 C 201.047 139.849,206.428 138.560,207.617 138.102 C 208.892 137.612,205.990 138.079,203.595 138.749 M193.555 141.978 C 188.574 143.753,175.251 148.176,170.703 149.565 L 169.336 149.982 170.847 149.769 C 173.309 149.423,201.449 139.886,200.000 139.889 C 199.678 139.890,196.777 140.830,193.555 141.978 M166.016 150.586 C 165.049 150.866,164.521 151.109,164.844 151.126 C 165.166 151.143,166.309 150.912,167.383 150.613 C 168.457 150.314,168.984 150.071,168.555 150.073 C 168.125 150.075,166.982 150.306,166.016 150.586 M161.133 151.563 C 160.087 151.828,160.066 151.861,160.938 151.861 C 161.475 151.861,162.441 151.727,163.086 151.563 C 164.131 151.297,164.152 151.264,163.281 151.264 C 162.744 151.264,161.777 151.398,161.133 151.563 M156.152 152.236 C 156.851 152.322,157.993 152.322,158.691 152.236 C 159.390 152.149,158.818 152.078,157.422 152.078 C 156.025 152.078,155.454 152.149,156.152 152.236 M150.391 156.641 C 150.117 159.017,149.975 161.042,150.075 161.142 C 150.175 161.242,150.478 159.378,150.750 157.000 C 151.022 154.622,151.164 152.596,151.066 152.498 C 150.968 152.401,150.664 154.265,150.391 156.641 M257.706 155.360 C 258.400 155.446,259.630 155.448,260.441 155.363 C 261.251 155.279,260.684 155.208,259.180 155.206 C 257.676 155.205,257.013 155.274,257.706 155.360 M268.555 156.983 C 277.532 160.224,280.615 167.239,276.027 173.982 C 275.469 174.802,275.175 176.144,274.958 178.865 C 274.217 188.163,269.903 197.251,263.533 202.933 C 260.474 205.662,260.547 205.692,260.547 201.682 C 260.547 198.649,260.646 198.178,261.473 197.287 C 265.251 193.215,268.851 184.436,268.690 179.688 C 268.656 178.685,268.602 178.581,268.489 179.297 C 267.395 186.203,265.856 190.613,263.229 194.363 C 260.885 197.709,260.561 197.911,255.078 199.453 C 254.111 199.725,253.688 199.959,254.138 199.974 C 254.588 199.988,255.978 199.648,257.227 199.219 C 258.475 198.789,259.646 198.438,259.827 198.438 C 260.511 198.438,260.165 210.833,259.215 220.313 C 259.041 222.049,259.066 222.199,259.348 221.094 C 259.761 219.471,260.547 211.049,260.547 208.244 L 260.547 206.272 264.371 202.452 C 271.366 195.468,274.694 188.105,275.589 177.639 C 275.731 175.976,276.014 174.512,276.217 174.386 C 278.394 173.040,279.038 165.869,277.254 162.834 C 275.584 159.994,269.862 156.213,267.311 156.264 C 266.921 156.272,267.480 156.595,268.555 156.983 M182.227 159.571 C 182.441 159.644,186.748 159.769,191.797 159.848 C 196.846 159.927,199.922 159.872,198.633 159.725 C 196.281 159.459,181.494 159.319,182.227 159.571 M177.051 160.050 C 177.856 160.134,179.175 160.134,179.980 160.050 C 180.786 159.966,180.127 159.897,178.516 159.897 C 176.904 159.897,176.245 159.966,177.051 160.050 M169.336 160.425 C 168.477 160.501,165.062 160.823,161.747 161.141 C 158.433 161.459,154.478 161.751,152.958 161.791 C 150.315 161.860,150.288 161.870,152.344 162.017 C 154.220 162.152,160.804 161.677,172.266 160.578 C 175.111 160.306,175.250 160.262,173.242 160.274 C 171.953 160.281,170.195 160.349,169.336 160.425 M204.476 160.948 C 206.401 161.354,208.039 161.622,208.117 161.544 C 208.329 161.333,202.913 160.152,201.876 160.184 C 201.381 160.199,202.551 160.543,204.476 160.948 M251.643 160.836 C 253.084 160.911,255.545 160.912,257.112 160.837 C 258.679 160.763,257.500 160.702,254.492 160.701 C 251.484 160.700,250.202 160.761,251.643 160.836 M243.359 161.556 C 241.024 162.133,241.255 162.118,246.875 161.338 C 249.018 161.041,249.019 161.040,247.266 161.033 C 246.299 161.028,244.541 161.264,243.359 161.556 M260.645 161.207 C 261.021 161.305,261.636 161.305,262.012 161.207 C 262.388 161.109,262.080 161.028,261.328 161.028 C 260.576 161.028,260.269 161.109,260.645 161.207 M264.258 161.758 C 266.750 162.318,269.227 163.310,270.703 164.338 L 272.070 165.291 270.703 164.077 C 269.347 162.873,265.161 161.291,263.533 161.367 C 263.072 161.389,263.398 161.565,264.258 161.758 M236.133 162.932 C 226.608 165.153,217.105 165.569,214.175 163.893 C 213.270 163.376,212.127 162.846,211.636 162.716 C 211.144 162.585,211.885 163.090,213.281 163.838 C 217.447 166.067,226.274 165.742,238.086 162.925 C 239.805 162.516,240.771 162.186,240.234 162.192 C 239.697 162.198,237.852 162.532,236.133 162.932 M271.293 167.078 C 270.915 167.675,270.232 168.483,269.775 168.874 L 268.945 169.584 269.797 169.168 C 270.704 168.725,272.476 166.487,272.166 166.176 C 272.064 166.074,271.671 166.480,271.293 167.078 M163.086 169.339 C 162.871 169.423,159.795 169.776,156.250 170.124 C 148.058 170.928,148.687 170.136,148.960 179.297 C 149.166 186.231,149.946 194.490,150.296 193.445 C 150.388 193.169,150.265 191.500,150.023 189.734 C 149.460 185.640,149.061 172.214,149.484 171.622 C 149.666 171.368,152.514 170.897,156.055 170.536 C 159.492 170.186,162.876 169.797,163.574 169.672 C 164.821 169.448,164.844 169.471,164.844 170.904 C 164.844 174.408,167.836 186.372,169.371 189.008 C 169.703 189.579,169.853 189.690,169.706 189.258 C 169.560 188.828,168.947 187.054,168.345 185.315 C 167.102 181.727,165.730 175.635,165.318 171.875 C 165.039 169.332,164.547 168.773,163.086 169.339 M268.652 173.438 C 268.739 175.693,268.870 177.715,268.944 177.930 C 269.216 178.719,269.053 171.257,268.778 170.313 C 268.622 169.775,268.565 171.182,268.652 173.438 M117.696 173.087 C 114.068 174.482,109.343 179.991,109.384 182.777 C 109.389 183.119,109.804 182.400,110.306 181.180 C 113.748 172.811,123.542 169.891,129.774 175.376 C 136.641 181.421,138.805 192.935,139.430 226.758 L 139.711 241.992 139.772 231.055 C 139.873 212.947,138.787 196.760,136.916 188.477 C 134.084 175.937,126.363 169.755,117.696 173.087 M222.768 174.120 L 226.591 174.247 227.388 175.503 C 228.069 176.574,228.145 176.615,227.912 175.781 C 227.395 173.935,227.096 173.823,222.901 173.910 L 218.945 173.992 222.768 174.120 M217.659 175.175 C 217.418 175.703,216.669 178.032,215.995 180.352 C 214.252 186.344,212.979 190.051,211.674 192.933 C 211.050 194.309,210.604 195.500,210.682 195.578 C 210.955 195.850,213.295 190.189,214.633 186.024 C 217.963 175.654,218.787 172.698,217.659 175.175 M48.145 179.102 C 48.150 179.961,48.230 180.267,48.323 179.781 C 48.417 179.295,48.413 178.592,48.315 178.218 C 48.217 177.845,48.141 178.242,48.145 179.102 M119.531 180.176 C 118.823 180.659,117.965 181.494,117.623 182.031 C 117.228 182.654,117.504 182.486,118.386 181.570 C 120.848 179.009,123.853 179.222,126.392 182.138 C 127.183 183.046,127.648 183.438,127.425 183.008 C 125.806 179.884,121.973 178.509,119.531 180.176 M228.966 179.688 C 228.966 180.010,229.203 180.889,229.492 181.641 C 229.782 182.393,230.019 182.744,230.019 182.422 C 230.019 182.100,229.782 181.221,229.492 180.469 C 229.203 179.717,228.966 179.365,228.966 179.688 M47.509 182.691 C 47.077 186.231,46.825 205.661,47.166 209.180 C 47.407 211.669,47.455 209.717,47.330 202.499 C 47.221 196.229,47.336 190.160,47.627 186.738 C 48.078 181.450,47.998 178.690,47.509 182.691 M230.138 183.594 C 230.138 183.916,230.374 184.795,230.664 185.547 C 230.954 186.299,231.191 186.650,231.191 186.328 C 231.191 186.006,230.954 185.127,230.664 184.375 C 230.374 183.623,230.138 183.271,230.138 183.594 M108.838 184.814 C 107.724 190.385,109.900 203.241,112.730 207.813 C 113.111 208.428,113.228 208.500,113.044 208.008 C 109.700 199.021,108.842 194.809,109.054 188.427 C 109.227 183.226,109.211 182.950,108.838 184.814 M120.132 186.230 C 118.815 188.924,118.976 201.683,120.367 204.883 C 120.630 205.488,120.665 205.399,120.523 204.492 C 118.839 193.761,119.359 185.665,121.772 185.036 C 122.342 184.887,122.321 184.848,121.654 184.811 C 121.088 184.779,120.634 185.202,120.132 186.230 M345.043 186.914 C 345.045 188.203,345.118 188.683,345.205 187.981 C 345.292 187.279,345.290 186.225,345.201 185.638 C 345.112 185.051,345.041 185.625,345.043 186.914 M115.843 185.823 C 115.359 187.082,115.178 192.733,115.563 194.531 C 115.875 195.989,115.906 195.723,115.739 192.969 C 115.629 191.143,115.719 188.682,115.938 187.500 C 116.350 185.280,116.312 184.603,115.843 185.823 M128.740 186.328 C 128.883 186.865,129.164 187.568,129.363 187.891 C 129.614 188.298,129.645 188.179,129.464 187.500 C 129.320 186.963,129.039 186.260,128.840 185.938 C 128.589 185.530,128.558 185.649,128.740 186.328 M231.291 187.305 C 231.271 187.520,231.675 189.014,232.190 190.625 C 232.705 192.236,233.142 193.379,233.162 193.164 C 233.182 192.949,232.778 191.455,232.263 189.844 C 231.748 188.232,231.311 187.090,231.291 187.305 M125.550 189.648 C 126.060 190.938,126.785 193.096,127.161 194.444 C 127.536 195.793,127.924 196.816,128.023 196.717 C 128.309 196.431,125.879 188.948,125.220 188.086 C 124.859 187.614,124.990 188.234,125.550 189.648 M129.688 188.704 C 129.688 188.794,129.942 190.307,130.252 192.067 C 131.134 197.079,131.449 201.953,130.890 201.953 C 130.633 201.953,130.533 202.132,130.668 202.350 C 131.854 204.270,131.853 198.135,130.665 192.017 C 130.178 189.509,129.685 187.837,129.688 188.704 M345.481 198.633 C 345.481 203.789,345.537 205.844,345.604 203.200 C 345.672 200.556,345.672 196.337,345.604 193.825 C 345.536 191.313,345.481 193.477,345.481 198.633 M169.922 190.384 C 169.922 190.803,171.084 192.969,171.309 192.969 C 171.417 192.969,171.214 192.397,170.859 191.699 C 170.134 190.273,169.922 189.976,169.922 190.384 M353.286 199.023 C 353.287 202.891,353.345 204.420,353.416 202.422 C 353.487 200.423,353.487 197.259,353.416 195.390 C 353.344 193.521,353.286 195.156,353.286 199.023 M172.101 194.591 C 173.494 197.285,177.570 200.567,180.469 201.328 C 181.006 201.469,180.391 201.082,179.102 200.468 C 176.534 199.244,174.459 197.422,172.828 194.956 C 171.569 193.054,171.214 192.876,172.101 194.591 M233.203 193.926 C 233.203 194.023,233.902 196.304,234.757 198.995 C 235.611 201.686,236.483 204.990,236.694 206.338 L 237.078 208.789 236.899 206.298 C 236.706 203.606,233.203 191.882,233.203 193.926 M150.432 194.922 C 150.314 198.175,153.478 209.671,156.250 216.064 C 160.955 226.912,169.394 236.121,180.176 242.173 C 183.587 244.088,182.858 243.338,179.220 241.190 C 163.866 232.123,155.176 218.633,151.175 197.656 C 150.786 195.615,150.452 194.385,150.432 194.922 M209.345 197.107 C 208.217 198.316,206.954 199.002,203.533 200.268 C 201.979 200.842,201.499 201.127,202.308 200.994 C 204.382 200.654,209.201 198.176,209.918 197.080 C 210.747 195.816,210.543 195.826,209.345 197.107 M116.082 197.070 C 116.076 197.500,116.222 198.203,116.406 198.633 C 116.834 199.628,116.834 198.601,116.406 197.266 C 116.155 196.481,116.091 196.442,116.082 197.070 M128.156 197.574 C 128.121 198.136,129.592 201.172,129.899 201.172 C 130.006 201.172,129.763 200.513,129.359 199.707 C 128.955 198.901,128.526 197.979,128.405 197.656 C 128.261 197.270,128.176 197.242,128.156 197.574 M242.188 199.316 C 242.188 199.854,242.354 199.874,248.828 200.140 L 253.320 200.325 249.023 200.014 C 246.660 199.843,244.232 199.506,243.627 199.266 C 242.250 198.718,242.188 198.720,242.188 199.316 M242.773 205.579 C 242.773 208.419,242.649 211.357,242.496 212.109 C 242.234 213.398,242.249 213.387,242.759 211.914 C 243.323 210.282,243.529 202.325,243.039 201.087 C 242.893 200.718,242.773 202.740,242.773 205.579 M182.422 201.953 C 182.959 202.125,183.838 202.263,184.375 202.259 C 185.252 202.252,185.232 202.221,184.180 201.953 C 182.527 201.533,181.109 201.533,182.422 201.953 M117.598 202.186 C 117.551 203.214,120.068 207.422,120.730 207.422 C 120.930 207.422,121.091 207.114,121.088 206.738 C 121.083 206.206,121.008 206.172,120.746 206.585 C 120.344 207.219,120.239 207.083,118.675 203.906 C 118.093 202.725,117.608 201.951,117.598 202.186 M195.020 202.222 C 195.396 202.321,196.011 202.321,196.387 202.222 C 196.763 202.124,196.455 202.044,195.703 202.044 C 194.951 202.044,194.644 202.124,195.020 202.222 M187.612 202.633 C 188.855 202.711,190.789 202.710,191.909 202.631 C 193.029 202.553,192.012 202.489,189.648 202.490 C 187.285 202.491,186.369 202.555,187.612 202.633 M54.913 210.742 C 55.045 214.992,55.758 221.088,56.832 227.148 C 57.137 228.867,57.588 231.680,57.835 233.398 C 59.722 246.515,67.082 265.820,75.476 279.673 C 86.093 297.192,97.499 308.670,114.696 319.141 C 115.931 319.893,118.539 321.573,120.492 322.875 C 128.455 328.182,146.756 337.750,147.508 336.998 C 147.585 336.920,146.288 336.268,144.625 335.548 C 136.443 332.008,124.057 325.183,119.884 321.914 C 109.846 314.054,93.589 298.083,94.359 296.838 C 94.461 296.673,96.958 295.175,99.909 293.508 C 102.859 291.841,106.943 289.515,108.984 288.340 C 111.025 287.165,113.733 285.611,115.000 284.886 C 116.268 284.162,118.066 283.056,118.995 282.429 L 120.684 281.289 122.276 284.688 C 132.243 305.956,155.842 321.763,185.742 327.197 C 193.039 328.523,216.608 327.806,215.106 326.304 C 215.008 326.206,213.459 326.411,211.663 326.760 C 196.021 329.799,175.524 326.372,158.008 317.791 C 138.079 308.027,124.621 293.823,119.793 277.459 L 119.193 275.426 121.665 273.420 C 127.175 268.949,132.515 255.934,131.534 249.362 C 131.387 248.376,131.360 248.412,131.309 249.664 C 130.800 262.026,124.890 272.391,115.820 276.830 C 113.556 277.938,100.794 284.908,96.680 287.284 C 94.746 288.400,92.349 289.780,91.353 290.350 L 89.543 291.387 86.437 287.393 C 78.491 277.175,71.607 264.941,65.604 250.372 C 62.923 243.867,62.054 242.004,62.697 244.141 C 66.500 256.793,80.266 281.432,89.299 291.754 C 89.372 291.838,92.996 289.887,97.353 287.419 C 101.709 284.951,106.855 282.082,108.789 281.043 C 110.723 280.003,113.701 278.393,115.407 277.463 C 118.880 275.571,118.743 275.534,119.675 278.617 C 120.377 280.942,120.297 281.508,119.198 281.961 C 118.844 282.107,116.006 283.740,112.891 285.589 C 109.775 287.438,104.194 290.659,100.488 292.747 C 96.782 294.834,93.750 296.664,93.750 296.813 C 93.750 298.144,107.899 312.708,114.063 317.721 C 116.482 319.689,114.170 318.464,109.068 315.073 C 83.941 298.378,62.769 264.125,58.223 232.813 C 57.957 230.986,57.324 227.031,56.815 224.023 C 56.306 221.016,55.706 216.533,55.481 214.063 C 55.255 211.592,55.005 208.867,54.925 208.008 C 54.845 207.148,54.839 208.379,54.913 210.742 M352.731 208.301 C 352.689 232.609,339.492 268.601,322.259 291.406 C 268.287 362.830,173.167 375.254,104.297 319.876 C 73.900 295.434,52.728 257.090,48.460 218.750 C 47.750 212.377,47.779 212.546,47.715 214.342 C 47.392 223.425,53.729 247.775,60.348 262.891 C 78.150 303.539,113.693 335.161,156.445 348.386 C 185.343 357.325,219.785 356.797,247.461 346.991 C 303.627 327.091,343.246 278.979,351.937 220.117 C 352.801 214.267,353.409 206.250,352.989 206.250 C 352.849 206.250,352.733 207.173,352.731 208.301 M208.003 208.716 C 207.254 209.465,206.641 210.312,206.641 210.598 C 206.641 210.885,207.071 210.485,207.598 209.710 C 208.396 208.536,209.298 207.813,209.964 207.813 C 210.038 207.813,210.182 208.080,210.283 208.406 C 210.423 208.857,210.453 208.841,210.409 208.341 C 210.307 207.177,209.401 207.318,208.003 208.716 M345.034 209.961 C 345.037 211.035,345.112 211.428,345.202 210.834 C 345.292 210.241,345.290 209.362,345.197 208.881 C 345.104 208.401,345.031 208.887,345.034 209.961 M113.281 209.122 C 113.281 209.539,115.079 212.287,117.033 214.857 C 119.793 218.485,122.668 220.242,127.539 221.278 C 129.258 221.643,130.972 222.027,131.348 222.130 C 131.973 222.302,132.039 223.182,132.122 232.546 L 132.213 242.773 132.324 232.643 C 132.451 221.098,132.775 222.046,128.365 221.082 C 122.224 219.740,119.264 217.676,115.596 212.180 C 113.398 208.885,113.281 208.731,113.281 209.122 M235.770 210.591 C 234.836 212.707,232.371 214.254,228.975 214.852 C 226.235 215.336,216.798 215.230,215.430 214.701 C 214.967 214.522,215.047 214.643,215.625 214.998 C 217.042 215.868,227.403 215.868,230.501 214.999 C 233.129 214.261,235.421 212.506,236.204 210.632 C 237.004 208.716,236.613 208.680,235.770 210.591 M210.563 209.609 C 210.537 210.311,212.656 213.241,213.690 213.933 C 214.359 214.380,214.219 214.113,213.228 213.049 C 212.447 212.210,211.532 210.996,211.193 210.352 C 210.855 209.707,210.571 209.373,210.563 209.609 M206.293 211.914 C 206.278 212.344,206.785 214.169,207.420 215.970 C 208.727 219.675,208.724 219.689,206.735 220.346 C 196.571 223.700,188.094 230.303,184.518 237.651 C 183.580 239.578,182.819 241.519,182.827 241.964 C 182.834 242.409,183.167 241.866,183.567 240.757 C 186.869 231.583,192.800 226.525,207.324 220.493 C 209.244 219.695,209.255 219.645,208.152 216.797 C 207.694 215.615,207.095 213.857,206.820 212.891 C 206.545 211.924,206.308 211.484,206.293 211.914 M344.643 213.867 C 344.646 214.941,344.722 215.334,344.812 214.741 C 344.901 214.147,344.899 213.268,344.806 212.788 C 344.714 212.307,344.640 212.793,344.643 213.867 M241.311 214.780 C 240.342 216.420,238.691 217.939,236.523 219.183 C 234.430 220.386,234.374 220.735,236.445 219.669 C 238.998 218.354,242.747 214.491,242.099 213.843 C 242.017 213.762,241.663 214.184,241.311 214.780 M343.438 221.908 C 342.944 225.005,342.436 228.066,342.310 228.711 C 342.184 229.355,342.188 229.785,342.319 229.665 C 342.674 229.341,344.596 218.031,344.456 217.088 C 344.390 216.642,343.932 218.810,343.438 221.908 M238.561 222.468 C 247.571 225.447,250.917 229.862,252.170 240.430 C 252.323 241.719,252.534 242.535,252.638 242.243 C 252.981 241.285,251.889 235.806,250.702 232.521 C 248.715 227.028,245.217 224.005,238.596 222.062 C 233.918 220.690,233.898 220.927,238.561 222.468 M258.280 225.411 C 258.014 226.966,257.866 228.309,257.952 228.395 C 258.181 228.624,259.091 223.561,258.915 223.033 C 258.832 222.786,258.547 223.856,258.280 225.411 M340.850 234.654 C 326.061 294.801,273.439 340.885,213.618 346.076 C 205.792 346.755,205.427 346.817,210.267 346.644 C 261.091 344.827,314.112 306.246,334.009 256.604 C 337.765 247.233,342.549 231.748,342.102 230.407 C 342.036 230.210,341.473 232.121,340.850 234.654 M255.623 235.475 C 254.964 237.341,254.296 239.219,254.139 239.648 C 253.958 240.141,254.074 240.068,254.451 239.453 C 255.135 238.336,257.186 232.446,256.967 232.227 C 256.887 232.147,256.282 233.609,255.623 235.475 M59.393 234.598 C 59.363 235.299,60.673 238.880,60.809 238.469 C 60.879 238.258,60.594 237.207,60.174 236.133 C 59.755 235.059,59.403 234.368,59.393 234.598 M213.598 235.839 C 216.672 235.905,221.594 235.905,224.535 235.839 C 227.476 235.772,224.961 235.718,218.945 235.719 C 212.930 235.719,210.523 235.773,213.598 235.839 M234.117 235.838 C 237.614 235.991,239.702 236.999,241.028 239.174 C 241.449 239.865,241.795 240.281,241.795 240.099 C 241.806 237.710,238.067 235.525,234.139 235.625 L 231.055 235.704 234.117 235.838 M203.015 236.364 C 201.551 236.709,199.219 237.759,199.219 238.074 C 199.219 238.164,199.987 237.897,200.927 237.482 C 201.866 237.066,203.844 236.571,205.321 236.381 C 207.486 236.103,207.666 236.034,206.250 236.026 C 205.283 236.021,203.827 236.173,203.015 236.364 M197.579 239.355 C 191.915 245.409,196.449 256.439,203.947 254.849 C 205.838 254.448,206.181 253.817,206.160 250.781 C 206.148 249.134,206.129 249.167,205.857 251.299 C 205.425 254.673,203.376 255.629,200.128 253.972 C 194.970 251.340,193.748 244.929,197.474 240.048 C 199.008 238.039,199.046 237.787,197.579 239.355 M61.161 239.844 C 61.305 240.381,61.586 241.084,61.785 241.406 C 62.036 241.813,62.067 241.694,61.885 241.016 C 61.742 240.479,61.461 239.775,61.262 239.453 C 61.011 239.046,60.980 239.165,61.161 239.844 M242.085 244.141 C 242.176 246.182,242.310 248.027,242.383 248.242 C 242.658 249.049,242.488 242.341,242.210 241.406 C 242.050 240.869,241.994 242.100,242.085 244.141 M138.943 246.442 C 138.782 248.889,138.727 250.966,138.818 251.058 C 139.060 251.299,139.560 244.122,139.383 242.965 C 139.301 242.430,139.103 243.994,138.943 246.442 M131.758 246.094 C 131.758 247.275,131.831 247.759,131.920 247.168 C 132.010 246.577,132.010 245.610,131.920 245.020 C 131.831 244.429,131.758 244.912,131.758 246.094 M212.610 244.898 C 207.316 245.141,206.810 245.367,206.436 247.661 L 206.214 249.023 206.792 247.500 C 207.591 245.395,207.298 245.465,216.491 245.179 C 235.829 244.576,234.917 244.401,235.472 248.838 C 235.708 250.732,235.848 251.209,235.870 250.195 C 235.918 247.958,235.333 245.274,234.712 244.880 C 234.146 244.522,220.573 244.533,212.610 244.898 M240.205 251.810 C 239.684 252.375,238.730 253.166,238.086 253.566 C 236.687 254.435,237.075 254.537,238.660 253.717 C 239.277 253.398,240.160 252.607,240.621 251.959 C 241.655 250.507,241.466 250.440,240.205 251.810 M142.657 255.985 C 141.996 262.507,141.007 267.877,139.032 275.666 L 137.426 281.995 138.425 284.177 C 144.158 296.699,161.334 308.986,179.641 313.660 C 186.486 315.408,188.815 315.710,196.289 315.824 L 203.711 315.936 196.289 315.628 C 173.907 314.699,151.257 303.529,141.393 288.556 C 137.552 282.726,137.576 282.882,139.402 275.770 C 141.671 266.927,143.629 255.060,143.297 252.148 C 143.224 251.504,142.936 253.230,142.657 255.985 M137.973 254.288 C 136.713 261.632,132.988 270.232,128.850 275.346 L 126.909 277.745 129.073 281.834 C 134.725 292.514,142.234 300.543,152.913 307.325 C 156.480 309.591,165.138 314.076,165.898 314.053 C 166.070 314.048,163.838 312.848,160.938 311.388 C 145.833 303.782,135.999 294.455,129.382 281.461 L 127.401 277.570 128.759 276.067 C 133.233 271.115,139.708 255.257,138.606 251.952 C 138.522 251.698,138.237 252.749,137.973 254.288 M144.177 252.344 C 144.177 252.909,146.428 257.474,146.466 256.987 C 146.476 256.855,145.965 255.624,145.330 254.252 C 144.696 252.880,144.177 252.021,144.177 252.344 M235.807 252.214 C 235.446 252.575,235.480 253.516,235.854 253.516 C 236.023 253.516,236.188 253.164,236.221 252.734 C 236.284 251.895,236.214 251.807,235.807 252.214 M146.717 257.910 C 153.431 269.668,169.243 280.873,187.032 286.478 C 192.312 288.142,191.638 287.612,186.133 285.770 C 169.477 280.199,155.770 270.815,148.578 260.059 C 147.069 257.802,145.855 256.400,146.717 257.910 M250.631 267.214 C 250.165 272.802,247.584 278.674,243.090 284.372 L 240.673 287.437 242.405 288.251 C 244.949 289.446,249.929 291.475,255.469 293.571 C 266.060 297.580,283.014 305.542,291.406 310.449 C 292.337 310.993,292.346 310.989,291.602 310.373 C 290.834 309.738,288.292 308.321,280.807 304.356 C 275.745 301.675,261.273 295.314,254.331 292.719 C 251.235 291.562,247.060 289.894,245.053 289.014 L 241.404 287.414 242.199 286.383 C 245.970 281.491,249.106 275.911,250.147 272.242 C 250.916 269.533,251.506 264.994,251.162 264.437 C 251.017 264.202,250.778 265.452,250.631 267.214 M248.296 268.083 C 246.209 272.195,242.474 276.970,237.844 281.445 L 233.803 285.352 233.761 292.969 C 233.725 299.356,233.589 301.059,232.915 303.516 C 232.006 306.833,232.030 307.654,232.953 304.810 C 233.973 301.670,234.489 296.219,234.281 290.763 L 234.086 285.627 238.357 281.388 C 243.965 275.821,248.039 270.344,249.572 266.309 C 250.274 264.462,249.798 265.124,248.296 268.083 M193.945 288.308 C 195.449 288.713,197.031 289.036,197.461 289.025 C 197.891 289.014,196.924 288.674,195.313 288.269 C 193.701 287.864,192.119 287.541,191.797 287.552 C 191.475 287.562,192.441 287.902,193.945 288.308 M199.414 289.433 C 200.619 289.760,203.383 289.959,203.092 289.697 C 203.003 289.617,201.875 289.453,200.586 289.333 C 199.045 289.190,198.643 289.224,199.414 289.433 M224.609 289.882 C 223.857 290.081,220.693 290.391,217.578 290.571 C 212.037 290.890,211.999 290.898,215.820 290.949 C 219.436 290.996,222.108 290.752,225.928 290.026 L 227.442 289.738 227.256 294.576 C 226.939 302.844,223.971 308.229,218.033 311.309 C 217.531 311.569,217.208 311.870,217.315 311.977 C 217.558 312.219,219.206 311.204,221.397 309.462 C 225.732 306.016,228.361 298.688,227.734 291.797 C 227.517 289.406,227.181 289.200,224.609 289.882 M205.273 290.237 C 207.276 290.565,211.587 290.739,211.296 290.481 C 211.206 290.402,209.375 290.243,207.227 290.127 C 204.521 289.982,203.921 290.016,205.273 290.237 M241.797 294.293 C 241.797 294.377,243.687 295.194,245.996 296.110 C 251.188 298.168,260.863 302.537,268.338 306.198 C 271.442 307.718,274.051 308.891,274.138 308.805 C 274.513 308.430,253.161 298.480,245.921 295.656 C 241.844 294.066,241.797 294.050,241.797 294.293 M240.305 297.509 C 239.951 307.559,233.679 317.362,224.216 322.654 C 222.606 323.554,221.641 324.178,222.070 324.041 C 231.635 320.975,241.295 306.972,240.519 297.298 L 240.375 295.508 240.305 297.509 M230.908 308.671 C 228.238 314.134,222.665 317.798,214.063 319.746 C 212.881 320.013,212.276 320.250,212.719 320.272 C 216.155 320.443,223.852 317.042,227.315 313.823 C 229.395 311.891,232.366 307.627,231.935 307.195 C 231.822 307.083,231.360 307.747,230.908 308.671 M274.609 309.128 C 274.609 309.395,286.735 315.739,286.910 315.564 C 286.986 315.488,284.250 313.964,280.829 312.179 C 277.408 310.393,274.609 309.020,274.609 309.128 M214.513 312.918 C 212.086 313.996,209.021 314.837,206.175 315.206 C 204.142 315.470,203.990 315.535,205.309 315.575 C 207.329 315.638,212.379 314.358,214.991 313.122 C 217.363 311.999,216.965 311.830,214.513 312.918 M166.406 314.188 C 166.406 314.472,170.764 316.085,170.971 315.878 C 171.062 315.787,170.379 315.448,169.455 315.124 C 168.530 314.801,167.466 314.410,167.090 314.257 C 166.714 314.104,166.406 314.073,166.406 314.188 M171.875 316.335 C 172.629 316.821,178.533 318.472,178.749 318.256 C 178.839 318.166,177.498 317.705,175.769 317.232 C 174.041 316.758,172.326 316.277,171.958 316.163 C 171.402 315.992,171.388 316.021,171.875 316.335 M116.406 319.336 C 116.678 319.663,116.720 319.922,116.502 319.922 C 116.287 319.922,115.892 319.658,115.625 319.336 C 115.354 319.009,115.311 318.750,115.529 318.750 C 115.744 318.750,116.139 319.014,116.406 319.336 M181.716 319.115 C 182.295 319.300,183.701 319.551,184.841 319.672 C 186.518 319.850,186.654 319.826,185.553 319.547 C 183.560 319.042,180.362 318.682,181.716 319.115 M190.234 320.497 C 192.347 320.839,196.396 321.019,201.367 320.992 L 209.180 320.949 200.195 320.681 C 195.254 320.534,190.244 320.311,189.063 320.186 C 187.881 320.061,188.408 320.201,190.234 320.497 M209.863 320.582 C 210.239 320.680,210.854 320.680,211.230 320.582 C 211.606 320.484,211.299 320.403,210.547 320.403 C 209.795 320.403,209.487 320.484,209.863 320.582 M219.336 324.818 C 218.359 325.289,218.327 325.343,219.141 325.144 C 220.247 324.874,221.492 324.240,220.898 324.248 C 220.684 324.251,219.980 324.508,219.336 324.818 M216.211 325.781 C 215.719 325.993,215.646 326.117,216.016 326.117 C 216.338 326.117,216.953 325.966,217.383 325.781 C 217.875 325.570,217.947 325.446,217.578 325.446 C 217.256 325.446,216.641 325.597,216.211 325.781 M149.219 337.742 C 159.835 342.744,180.195 346.661,197.461 347.023 C 204.881 347.178,204.474 347.128,193.088 346.483 C 178.256 345.642,166.556 343.468,154.492 339.311 C 148.178 337.135,147.505 336.934,149.219 337.742 " stroke="none" fill="#000000" fill-rule="evenodd"></path></g></svg>